<?xml version="1.0" standalone="no"?>
<!DOCTYPE svg PUBLIC "-//W3C//DTD SVG 1.1//EN" "http://www.w3.org/Graphics/SVG/1.1/DTD/svg11.dtd">
<svg xmlns="http://www.w3.org/2000/svg" id="Layer_1" version="1.1" viewBox="0 0 1484.4 1286" width="1484.4000244140625" height="1286">
  <!-- Generator: Adobe Illustrator 29.6.1, SVG Export Plug-In . SVG Version: 2.1.1 Build 9)  -->
  <defs>
    <style>
      .st0 {
        fill: #16d367;
      }
    </style>
  </defs>
  <path class="st0" d="M1435.8,703.1c0,.4,0,.8,0,1.2,0,1,0,2,0,3-.2,21-1.5,41.6-4,62h-82.3l-156.9-156.9-.6-2.3c12.9-73.3-35.6-122.7-66.3-149.9-35.6-31.8-88.8-33.9-122.7,0-33.9,33.9-31.8,86.8,0,122.7,27.2,30.7,76.5,79.2,149.9,66.3l118,118h-247.5l-124.7-124.5c16.1-32.4,10.8-73.1-16.4-99.9l-101.4-101.4c-7.6-7.3-19.6-7.3-27.2,0l-3.2,3.2c-7.6,7.6-7.6,19.6,0,27.2l76,76-17.5,17.5-76-76c-7.6-7.3-19.6-7.3-27.2,0-7.3,7.6-7.3,19.6,0,27.2l76,76-17.5,17.5-76-76c-7.3-7.6-19.6-7.6-27.2,0l-3.2,3.2c-7.3,7.6-7.3,19.6,0,27.2l101.4,101.4c27.2,27.2,67.5,32.4,99.9,16.4l85.6,85.6h-354.7c29.5,138.5,152.5,242.5,300.1,242.5s147.5-28.3,201.3-75.4h291.3c-86.9,184.6-274.3,312.2-491.5,312.6h-1.1c-16.3,0-31.4-.2-45.5-.6-87.3-7.3-168.9-35.2-239.6-78.8-6.1-4.5-12.6-9.1-19.6-13.9h-147.2c-23.7,0-42.9-19.3-42.9-42.9s4.7-22.8,12.6-30.4c7.9-7.9,18.7-12.6,30.4-12.6h50c4.1-2,7.6-4.7,10.8-7.9,7.9-7.9,12.6-18.7,12.6-30.4,0-23.7-19.3-43-42.9-43h-165.1c-19-4.4-33.3-21.3-33.3-41.8s4.7-22.5,12.6-30.4c7.9-7.9,18.7-12.6,30.4-12.6h74.8c9.1-1.5,17.2-5.8,23.7-12,7.9-7.9,12.6-18.7,12.6-30.4,0-23.7-19.3-42.9-42.9-42.9h-205.4c-18.1-5.3-31.8-21.9-31.8-41.8v-1.2c0-24,19.6-43.5,43.5-43.5h175c9.1-1.5,17.5-5.8,23.7-12,7.9-7.9,12.6-18.7,12.6-30.4,0-23.7-19.3-42.9-42.9-42.9H62.2c-15.5-6.1-26.3-21.3-26.3-38.9s18.7-41.8,41.8-41.8h456.1c23.7,0,42.7-19.6,41.8-43.2-.6-22.8-20.4-40.6-43.5-40.6H238.7c-23.1,0-41.8-18.7-41.8-41.8s18.7-41.8,41.8-41.8h408.1c23.7,0,42.7-19.3,41.8-43.2-.6-23.1-20.7-40.6-43.5-40.6h-130.9c85.8-83.3,198.8-138.8,324.3-151.2-.3-.3-.7-.7-1-1-14.3-14.2-22.9-33.7-22.9-55.4,0-46.5,40-83.3,87.3-78,35.6,3.8,64.9,32.7,69,68.4,3.2,25.6-6.1,49-22.6,65.3-.2.2-.5.5-.7.7,102.7,10.3,196.9,49.1,274.7,108.4.2.2.5.4.7.6,128.8,99,212,254.3,212.9,429,0,1,0,1.9,0,2.9Z"/>
</svg>